<svg xmlns="http://www.w3.org/2000/svg" viewBox="-60 -60 120 120" width="120" height="120">
  <!-- Generado por tool/build_lift_rank_badges.dart. No editar a mano: dart run tool/build_lift_rank_badges.dart -->
  <polygon points="0,-44 38.1,-22 38.1,22 0,44 -38.1,22 -38.1,-22" transform="translate(0,2)" fill="#000" opacity=".2"/>
  <polygon points="0,-44 38.1,-22 38.1,22 0,44 -38.1,22 -38.1,-22" fill="#7B8590" stroke="#3F464E" stroke-width="1.4" stroke-linejoin="round"/>
  <polygon points="0,-41 35.5,-20.5 35.5,20.5 0,41 -35.5,20.5 -35.5,-20.5" fill="none" stroke="#EEF2F5" stroke-width=".7" opacity=".5"/>
  <polygon points="0,-36 31.2,-18 31.2,18 0,36 -31.2,18 -31.2,-18" fill="#BCC4CD"/>
  <path d="M-31.2 -18L0 -36L31.2 -18V0H-31.2z" fill="#fff" opacity=".1"/>
  <path d="M-31.2 0H31.2V18L0 36L-31.2 18z" fill="#000" opacity=".08"/>
  <polyline points="-31.2,18 -31.2,-18 0,-36 31.2,-18" fill="none" stroke="#EEF2F5" stroke-width="1.6" stroke-linejoin="round" opacity=".7"/>
  <polyline points="31.2,-18 31.2,18 0,36 -31.2,18" fill="none" stroke="#3F464E" stroke-width="1.6" stroke-linejoin="round" opacity=".35"/>
  <polygon points="0,-33 28.6,-16.5 28.6,16.5 0,33 -28.6,16.5 -28.6,-16.5" fill="none" stroke="#EEF2F5" stroke-width="1" opacity=".8"/>
  <rect x="-27.5" y="-3" width="55" height="6" rx="1" fill="#EEF2F5" stroke="#3F464E" stroke-width=".7"/>
  <path d="M14.9 -20h5.1v40h-5.1z M20.3 -18.3h5.1v36.6h-5.1z M-20 -20h5.1v40h-5.1z M-25.4 -18.3h5.1v36.6h-5.1z" fill="#3F464E" stroke="#EEF2F5" stroke-width=".7" stroke-linejoin="round"/>
  <path d="M25.7 -4h1.8v8h-1.8z M-27.5 -4h1.8v8h-1.8z" fill="#EEF2F5" stroke="#3F464E" stroke-width=".6"/>
  <path d="M-3 -1.8v3.6 M0 -1.8v3.6 M3 -1.8v3.6" stroke="#3F464E" stroke-width=".6" opacity=".55"/>
</svg>
