<svg xmlns="http://www.w3.org/2000/svg" viewBox="0 0 401 203" fill="currentColor">
<g transform="translate(-149,-148)">
  <path fill-rule="nonzero" d="M 523.945312 321.394531 C 523.945312 323.816406 521.980469 325.777344 519.5625 325.777344 L 515.296875 325.777344 C 512.875 325.777344 510.914062 323.816406 510.914062 321.394531 L 510.914062 178.671875 C 510.914062 176.25 512.875 174.289062 515.296875 174.289062 L 519.5625 174.289062 C 521.980469 174.289062 523.945312 176.25 523.945312 178.671875 Z M 545.621094 148.234375 L 489.238281 148.234375 C 486.816406 148.234375 484.855469 150.195312 484.855469 152.617188 L 484.855469 347.457031 C 484.855469 349.878906 486.816406 351.839844 489.238281 351.839844 L 545.621094 351.839844 C 548.035156 351.839844 550.003906 349.878906 550.003906 347.457031 L 550.003906 152.617188 C 550.003906 150.195312 548.035156 148.234375 545.621094 148.234375 "/>
  <path fill-rule="nonzero" d="M 471.824219 152.617188 L 471.824219 347.457031 C 471.824219 349.878906 469.863281 351.839844 467.441406 351.839844 L 450.148438 351.839844 C 447.726562 351.839844 445.769531 349.878906 445.769531 347.457031 L 445.769531 194.242188 C 445.769531 190.695312 441.777344 188.617188 438.871094 190.648438 L 434.445312 193.75 C 433.273438 194.570312 432.574219 195.914062 432.574219 197.34375 L 432.574219 347.457031 C 432.574219 349.878906 430.613281 351.839844 428.191406 351.839844 L 410.894531 351.839844 C 408.472656 351.839844 406.511719 349.878906 406.511719 347.457031 L 406.511719 152.617188 C 406.511719 150.195312 408.472656 148.234375 410.894531 148.234375 L 428.191406 148.234375 C 430.613281 148.234375 432.574219 150.195312 432.574219 152.617188 L 432.574219 154.828125 C 432.574219 158.375 436.566406 160.453125 439.472656 158.421875 L 445.769531 154.011719 L 452.890625 149.027344 C 453.628906 148.511719 454.503906 148.234375 455.402344 148.234375 L 467.441406 148.234375 C 469.863281 148.234375 471.824219 150.195312 471.824219 152.617188 "/>
  <path fill-rule="nonzero" d="M 393.40625 152.617188 L 393.40625 169.90625 C 393.40625 172.328125 391.445312 174.289062 389.023438 174.289062 L 371.730469 174.289062 C 369.308594 174.289062 367.347656 172.328125 367.347656 169.90625 L 367.347656 152.617188 C 367.347656 150.195312 369.308594 148.234375 371.730469 148.234375 L 389.023438 148.234375 C 391.445312 148.234375 393.40625 150.195312 393.40625 152.617188 "/>
  <path fill-rule="nonzero" d="M 393.40625 191.703125 L 393.40625 347.457031 C 393.40625 349.878906 391.445312 351.839844 389.023438 351.839844 L 371.730469 351.839844 C 369.308594 351.839844 367.347656 349.878906 367.347656 347.457031 L 367.347656 191.703125 C 367.347656 189.28125 369.308594 187.320312 371.730469 187.320312 L 389.023438 187.320312 C 391.445312 187.320312 393.40625 189.28125 393.40625 191.703125 "/>
  <path fill-rule="nonzero" d="M 328.1875 226.539062 L 328.1875 178.667969 C 328.1875 176.25 326.226562 174.289062 323.808594 174.289062 L 319.539062 174.289062 C 317.117188 174.289062 315.160156 176.25 315.160156 178.667969 L 315.160156 252.070312 C 315.160156 255.621094 319.148438 257.691406 322.046875 255.660156 L 328.1875 251.359375 L 347.347656 237.941406 C 350.25 235.910156 354.238281 237.988281 354.238281 241.539062 L 354.238281 262.640625 C 354.238281 264.070312 353.546875 265.417969 352.378906 266.238281 L 328.1875 283.167969 L 317.019531 290.988281 C 315.847656 291.808594 315.160156 293.148438 315.160156 294.578125 L 315.160156 321.398438 C 315.160156 323.820312 317.117188 325.78125 319.539062 325.78125 L 323.808594 325.78125 C 326.226562 325.78125 328.1875 323.820312 328.1875 321.398438 L 328.1875 301.359375 C 328.1875 299.929688 328.886719 298.578125 330.058594 297.769531 L 347.347656 285.660156 C 350.25 283.628906 354.238281 285.699219 354.238281 289.25 L 354.238281 347.460938 C 354.238281 349.878906 352.277344 351.839844 349.859375 351.839844 L 293.476562 351.839844 C 291.058594 351.839844 289.097656 349.878906 289.097656 347.460938 L 289.097656 152.621094 C 289.097656 150.191406 291.058594 148.230469 293.476562 148.230469 L 349.859375 148.230469 C 352.277344 148.230469 354.238281 150.191406 354.238281 152.621094 L 354.238281 214.429688 C 354.238281 215.859375 353.546875 217.199219 352.378906 218.019531 L 335.078125 230.128906 C 332.179688 232.160156 328.1875 230.078125 328.1875 226.539062 "/>
  <path fill-rule="nonzero" d="M 274.546875 248.078125 L 278.4375 245.28125 C 279.597656 244.449219 280.289062 243.101562 280.289062 241.671875 L 280.289062 152.671875 C 280.289062 150.21875 278.308594 148.230469 275.847656 148.230469 L 265.585938 148.230469 C 265.46875 148.179688 265.335938 148.160156 265.207031 148.160156 L 154.386719 148.230469 C 151.96875 148.230469 149.996094 150.199219 149.996094 152.621094 L 149.996094 169.910156 C 149.996094 172.328125 151.957031 174.289062 154.378906 174.289062 L 173.867188 174.289062 C 175.078125 174.289062 176.058594 175.269531 176.058594 176.480469 L 176.058594 347.460938 C 176.058594 349.878906 178.019531 351.839844 180.4375 351.839844 L 197.738281 351.839844 C 200.15625 351.839844 202.117188 349.878906 202.117188 347.460938 L 202.117188 176.480469 C 202.117188 175.269531 203.097656 174.289062 204.308594 174.289062 L 215.15625 174.261719 L 249.21875 174.261719 C 251.71875 173.929688 254.238281 175.828125 254.238281 178.671875 L 254.238281 233.730469 C 254.238281 235.171875 253.527344 236.539062 252.335938 237.371094 L 252.128906 237.519531 C 252.019531 237.601562 251.898438 237.679688 251.789062 237.761719 L 248.1875 240.269531 C 248.039062 240.378906 247.878906 240.46875 247.726562 240.550781 C 237.964844 247.285156 228.199219 254.011719 218.445312 260.734375 C 216.386719 262.152344 215.15625 264.492188 215.15625 266.992188 L 215.15625 347.398438 C 215.15625 349.851562 217.144531 351.839844 219.597656 351.839844 L 236.769531 351.839844 C 239.21875 351.839844 241.207031 349.851562 241.207031 347.398438 L 241.207031 279.269531 C 241.207031 277.820312 241.917969 276.46875 243.097656 275.640625 L 247.246094 272.738281 C 250.195312 270.683594 254.238281 272.789062 254.238281 276.382812 L 254.238281 347.398438 C 254.238281 349.851562 256.226562 351.839844 258.679688 351.839844 L 275.847656 351.839844 C 278.308594 351.839844 280.289062 349.851562 280.289062 347.398438 L 280.289062 261.691406 C 280.289062 260.261719 279.597656 258.921875 278.4375 258.089844 L 274.546875 255.289062 C 272.078125 253.519531 272.078125 249.851562 274.546875 248.078125 "/>
</g>
</svg>
